<svg width="1791" height="251" viewBox="0 0 1791 251" fill="none" xmlns="http://www.w3.org/2000/svg">
<g clip-path="url(#clip0_2007_1236)">
<mask id="mask0_2007_1236" style="mask-type:luminance" maskUnits="userSpaceOnUse" x="0" y="0" width="1791" height="251">
<path d="M1791 0H0V251H1791V0Z" fill="white"/>
</mask>
<g mask="url(#mask0_2007_1236)">
<path d="M1624.4 166.751V-0.0263672H1541.1V250.139H1707.7V166.751H1624.4Z" fill="#013F33"/>
<path d="M1478.61 -0.0263672H1312.02V83.3624H1478.61V-0.0263672Z" fill="#013F33"/>
<path d="M1478.61 166.75H1312.02V250.138H1478.61V166.75Z" fill="#013F33"/>
<path d="M1270.37 166.75C1293.38 166.75 1312.02 148.081 1312.02 125.056C1312.02 102.031 1293.38 83.3613 1270.37 83.3613C1247.38 83.3613 1228.72 102.031 1228.72 125.056C1228.72 148.081 1247.38 166.75 1270.37 166.75Z" fill="#013F33"/>
<path d="M1749.36 250.138C1772.36 250.138 1791.02 231.469 1791.02 208.444C1791.02 185.419 1772.36 166.75 1749.36 166.75C1726.36 166.75 1707.71 185.419 1707.71 208.444C1707.71 231.469 1726.36 250.138 1749.36 250.138Z" fill="#013F33"/>
<path d="M249.913 -0.0263672H166.611V83.3624H249.913V-0.0263672Z" fill="#013F33"/>
<path d="M83.3024 -0.0263672H0V250.139H83.3024V-0.0263672Z" fill="#013F33"/>
<path d="M124.94 166.75C147.941 166.75 166.591 148.081 166.591 125.056C166.591 102.031 147.941 83.3613 124.94 83.3613C101.94 83.3613 83.2891 102.031 83.2891 125.056C83.2891 148.081 101.94 166.75 124.94 166.75Z" fill="#013F33"/>
<path d="M395.677 -0.0263672H312.375V166.751H395.677V-0.0263672Z" fill="#013F33"/>
<path d="M562.29 -0.0263672H478.988V250.139H562.29V-0.0263672Z" fill="#013F33"/>
<path d="M437.351 250.138C460.351 250.138 479.001 231.469 479.001 208.444C479.001 185.419 460.351 166.75 437.351 166.75C414.35 166.75 395.699 185.419 395.699 208.444C395.699 231.469 414.35 250.138 437.351 250.138Z" fill="#013F33"/>
<path d="M874.665 83.3613H791.363V250.139H874.665V83.3613Z" fill="#013F33"/>
<path d="M708.053 -0.0263672H624.75V250.139H708.053V-0.0263672Z" fill="#013F33"/>
<path d="M749.726 83.3624C772.727 83.3624 791.376 64.6925 791.376 41.668C791.376 18.6435 772.727 -0.0263672 749.726 -0.0263672C726.725 -0.0263672 708.074 18.6435 708.074 41.668C708.074 64.6925 726.725 83.3624 749.726 83.3624Z" fill="#013F33"/>
<path d="M1187.04 83.3613H1103.74V250.139H1187.04V83.3613Z" fill="#013F33"/>
<path d="M1020.47 -0.0263672H937.158V250.139H1020.47V-0.0263672Z" fill="#013F33"/>
<path d="M1062.1 83.3624C1085.1 83.3624 1103.75 64.6925 1103.75 41.668C1103.75 18.6435 1085.1 -0.0263672 1062.1 -0.0263672C1039.1 -0.0263672 1020.45 18.6435 1020.45 41.668C1020.45 64.6925 1039.1 83.3624 1062.1 83.3624Z" fill="#013F33"/>
</g>
</g>
<defs>
<clipPath id="clip0_2007_1236">
<rect width="1791" height="251" fill="white"/>
</clipPath>
</defs>
</svg>
